<svg width="1440" height="254" viewBox="0 0 1440 254" fill="none" xmlns="http://www.w3.org/2000/svg">
<mask id="mask0_155_96" style="mask-type:alpha" maskUnits="userSpaceOnUse" x="0" y="0" width="1440" height="254">
<rect width="1440" height="254" fill="#C4C4C4"/>
</mask>
<g mask="url(#mask0_155_96)">
<path d="M1370.78 78.1432C1399.18 76.1441 1407.28 65.6487 1407.78 60.6509C1407.78 54.6536 1448.5 -6.51343 1536 5.57822C1623.5 17.6699 1733.5 60.651 1733.5 150.611C1733.5 240.571 1921.17 254.065 1855 254.065H1478.78C997.78 253.066 28.6798 251.666 0.279785 254.065H-420C-440.147 254.065 -291.5 219.58 -245.5 150.611C-199.5 81.6416 -221.22 15.17 -114.5 17.0781C-7.77979 18.9863 8.27979 50.1556 8.27979 67.6478C8.27979 85.1401 -11.2202 103.132 8.27979 112.628C27.7798 122.124 31.7798 138.616 48.7798 150.611C65.7798 162.606 115.78 138.117 126.78 127.621C137.78 117.126 151.28 89.1383 183.28 103.132C215.28 117.126 199.78 150.611 199.28 172.102C198.78 193.592 218.28 181.597 238.78 188.094C259.28 194.592 249.28 204.587 262.28 210.584C275.28 216.582 299.28 210.584 313.78 210.584C328.28 210.584 343.28 192.093 361.78 204.587C380.28 217.082 393.28 204.587 395.78 192.093C398.28 179.598 408.78 187.095 405.28 181.597C401.78 176.1 373.78 162.606 373.78 150.611C373.78 138.616 392.78 155.609 426.28 172.102C459.78 188.594 429.28 197.59 434.28 210.584C439.28 223.579 524.28 259.563 504.78 236.073C485.28 212.584 449.28 181.597 456.28 181.597C463.28 181.597 492.28 192.093 500.78 204.587C509.28 217.082 504.78 223.079 531.28 217.581C557.78 212.084 557.28 227.077 578.78 227.077C600.28 227.077 587.78 217.581 610.28 210.584C632.78 203.588 641.28 231.075 647.28 236.073C653.28 241.071 664.28 232.075 676.28 236.073C688.28 240.071 699.28 243.07 712.78 236.073C726.28 229.076 718.28 210.584 745.28 204.587C772.28 198.59 790.78 236.073 804.28 236.073C817.78 236.073 827.28 227.077 829.78 204.587C832.28 182.097 840.28 153.61 871.28 146.613C902.28 139.616 899.28 172.102 907.78 181.597C916.28 191.093 936.78 181.597 949.28 181.597C961.78 181.597 977.28 167.604 979.78 192.093C982.28 216.582 953.28 197.59 927.78 210.584C902.28 223.579 920.78 235.074 927.78 236.073C934.78 237.073 948.28 223.079 969.78 227.077C991.28 231.075 1005.78 224.078 1021.78 217.581C1037.78 211.084 1043.28 205.587 1064.78 210.584C1086.28 215.582 1114.28 200.589 1123.78 197.59C1133.28 194.592 1114.78 186.595 1138.78 172.102C1162.78 157.608 1180.78 180.098 1188.28 181.597C1195.78 183.097 1208.28 180.098 1227.78 162.606C1247.28 145.113 1215.28 185.596 1255.28 162.606C1295.28 139.616 1255.28 141.115 1255.28 112.628C1255.28 84.1405 1299.78 83.6407 1318.78 89.1383C1337.78 94.6359 1335.28 80.6421 1370.78 78.1432Z" fill="#664939"/>
</g>
</svg>
