<svg width="2291" height="251" viewBox="0 0 2291 251" fill="none" xmlns="http://www.w3.org/2000/svg">
<path d="M1792.65 74.1432C1821.05 72.1441 1829.15 61.6487 1829.65 56.6509C1829.65 50.6536 1870.37 -10.5134 1957.87 1.57822C2045.37 13.6699 2155.37 56.651 2155.37 146.611C2155.37 236.571 2343.03 250.065 2276.87 250.065H1900.65C1419.65 249.066 450.546 247.666 422.146 250.065H1.86572C-18.281 250.065 130.365 215.58 176.366 146.611C222.366 77.6416 200.646 11.17 307.366 13.0781C414.086 14.9863 430.146 46.1556 430.146 63.6478C430.146 81.1401 410.646 99.1321 430.146 108.628C449.646 118.124 453.646 134.616 470.646 146.611C487.646 158.606 537.646 134.117 548.646 123.621C559.646 113.126 573.146 85.1383 605.146 99.1321C637.146 113.126 621.646 146.611 621.146 168.102C620.646 189.592 640.146 177.597 660.646 184.094C681.146 190.592 671.146 200.587 684.146 206.584C697.146 212.582 721.146 206.584 735.646 206.584C750.146 206.584 765.146 188.093 783.646 200.587C802.146 213.082 815.146 200.587 817.646 188.093C820.146 175.598 830.646 183.095 827.146 177.597C823.646 172.1 795.646 158.606 795.646 146.611C795.646 134.616 814.646 151.609 848.146 168.102C881.646 184.594 851.146 193.59 856.146 206.584C861.146 219.579 946.146 255.563 926.646 232.073C907.146 208.584 871.146 177.597 878.146 177.597C885.146 177.597 914.146 188.093 922.646 200.587C931.146 213.082 926.646 219.079 953.146 213.581C979.646 208.084 979.146 223.077 1000.65 223.077C1022.15 223.077 1009.65 213.581 1032.15 206.584C1054.65 199.588 1063.15 227.075 1069.15 232.073C1075.15 237.071 1086.15 228.075 1098.15 232.073C1110.15 236.071 1121.15 239.07 1134.65 232.073C1148.15 225.076 1140.15 206.584 1167.15 200.587C1194.15 194.59 1212.65 232.073 1226.15 232.073C1239.65 232.073 1249.15 223.077 1251.65 200.587C1254.15 178.097 1262.15 149.61 1293.15 142.613C1324.15 135.616 1321.15 168.102 1329.65 177.597C1338.15 187.093 1358.65 177.597 1371.15 177.597C1383.65 177.597 1399.15 163.604 1401.65 188.093C1404.15 212.582 1375.15 193.59 1349.65 206.584C1324.15 219.579 1342.65 231.074 1349.65 232.073C1356.65 233.073 1370.15 219.079 1391.65 223.077C1413.15 227.075 1427.65 220.078 1443.65 213.581C1459.65 207.084 1465.15 201.587 1486.65 206.584C1508.15 211.582 1536.15 196.589 1545.65 193.59C1555.15 190.592 1536.65 182.595 1560.65 168.102C1584.65 153.608 1602.65 176.098 1610.15 177.597C1617.65 179.097 1630.15 176.098 1649.65 158.606C1669.15 141.113 1637.15 181.596 1677.15 158.606C1717.15 135.616 1677.15 137.115 1677.15 108.628C1677.15 80.1405 1721.65 79.6407 1740.65 85.1383C1759.65 90.6359 1757.15 76.6421 1792.65 74.1432Z" fill="#664939"/>
</svg>
