<svg width="2069" height="240" viewBox="0 0 2069 240" fill="none" xmlns="http://www.w3.org/2000/svg">
<path d="M351.104 181.461C322.704 183.468 314.604 194.001 314.104 199.017C314.104 205.036 307.104 217.274 279.104 218.077C244.104 219.08 166.693 220.911 148.383 130.247C131.884 48.5421 -51.9768 4.9044 14.3835 4.9044H243.104C724.104 5.90756 1693.2 7.312 1721.6 4.9044C1757.1 1.89491 1796.83 4.9044 1814.88 4.9044C1893.38 4.9044 2087.88 -6.1304 2066.88 4.90442C2057.73 9.71172 1998.38 22.9615 1966.88 77.6339C1935.38 132.306 1859.38 201.247 1790.88 230.247C1722.38 259.247 1713.6 209.55 1713.6 191.995C1713.6 174.439 1733.1 156.382 1713.6 146.852C1694.1 137.322 1690.1 120.77 1673.1 108.732C1656.1 96.694 1606.1 121.272 1595.1 131.805C1584.1 142.338 1570.6 170.427 1538.6 156.382C1506.6 142.338 1522.1 108.732 1522.6 87.164C1523.1 65.5959 1503.6 77.6339 1483.1 71.1133C1462.6 64.5927 1472.6 54.5611 1459.6 48.5421C1446.6 42.5231 1422.6 48.5421 1408.1 48.5421C1393.6 48.5421 1378.6 67.1006 1360.1 54.5611C1341.6 42.0215 1328.6 54.5611 1326.1 67.1006C1323.6 79.6402 1313.1 72.1165 1316.6 77.6339C1320.1 83.1513 1348.1 96.694 1348.1 108.732C1348.1 120.77 1329.1 103.716 1295.6 87.164C1262.1 70.6117 1292.6 61.5833 1287.6 48.5421C1282.6 35.5009 1197.6 -0.613007 1217.1 22.9614C1236.6 46.5358 1272.6 77.6339 1265.6 77.6339C1258.6 77.6339 1229.6 67.1006 1221.1 54.5611C1212.6 42.0215 1217.1 36.0025 1190.6 41.5199C1164.1 47.0374 1164.6 31.9899 1143.1 31.9899C1121.6 31.9899 1134.1 41.5199 1111.6 48.5421C1089.1 55.5643 1080.6 27.9772 1074.6 22.9614C1068.6 17.9456 1057.6 26.974 1045.6 22.9614C1033.6 18.9487 1022.6 15.9392 1009.1 22.9614C995.604 29.9835 1003.6 48.5421 976.604 54.5611C949.604 60.5801 931.104 22.9614 917.604 22.9614C904.104 22.9614 894.604 31.9899 892.104 54.5611C889.604 77.1323 881.604 105.722 850.604 112.745C819.604 119.767 822.604 87.164 814.104 77.6339C805.604 68.1038 785.104 77.6339 772.604 77.6339C760.104 77.6339 744.604 91.6782 742.104 67.1006C739.604 42.5231 768.604 61.5833 794.104 48.5421C819.604 35.5009 801.104 23.9645 794.104 22.9614C787.104 21.9582 773.604 36.0025 752.104 31.9899C730.604 27.9772 716.104 34.9994 700.104 41.5199C684.104 48.0405 678.604 53.5579 657.104 48.5421C635.604 43.5263 607.604 58.5737 598.104 61.5832C588.604 64.5927 607.104 72.6181 583.104 87.164C559.104 101.71 541.104 79.1386 533.604 77.6339C526.104 76.1291 513.604 79.1386 494.104 96.694C474.604 114.249 506.604 73.6212 466.604 96.694C426.604 119.767 466.604 118.262 466.604 146.852C466.604 175.442 422.104 175.944 403.104 170.427C384.104 164.909 386.604 178.954 351.104 181.461Z" fill="white"/>
</svg>
