<svg width="1440" height="239" viewBox="0 0 1440 239" fill="none" xmlns="http://www.w3.org/2000/svg">
<mask id="mask0_93_132" style="mask-type:alpha" maskUnits="userSpaceOnUse" x="0" y="0" width="1440" height="239">
<rect width="1440" height="239" fill="#C4C4C4"/>
</mask>
<g mask="url(#mask0_93_132)">
<path d="M37.2202 183.715C8.82025 185.721 0.720276 196.254 0.220276 201.27C0.220276 207.289 -6.77972 219.527 -34.7798 220.33C-69.7799 221.333 -147.191 223.164 -165.5 132.5C-182 50.7952 -365.86 7.15746 -299.5 7.15746H-70.7797C410.22 8.16061 1379.32 9.56505 1407.72 7.15746C1443.22 4.14796 1482.94 7.15746 1501 7.15746C1579.5 7.15746 1774 -3.87735 1753 7.15747C1743.85 11.9648 1684.5 25.2146 1653 79.8869C1621.5 134.559 1545.5 203.5 1477 232.5C1408.5 261.5 1399.72 211.803 1399.72 194.248C1399.72 176.692 1419.22 158.635 1399.72 149.105C1380.22 139.575 1376.22 123.023 1359.22 110.985C1342.22 98.9471 1292.22 123.525 1281.22 134.058C1270.22 144.591 1256.72 172.68 1224.72 158.635C1192.72 144.591 1208.22 110.985 1208.72 89.417C1209.22 67.849 1189.72 79.8869 1169.22 73.3664C1148.72 66.8458 1158.72 56.8141 1145.72 50.7952C1132.72 44.7762 1108.72 50.7952 1094.22 50.7952C1079.72 50.7952 1064.72 69.3537 1046.22 56.8141C1027.72 44.2746 1014.72 56.8141 1012.22 69.3537C1009.72 81.8933 999.22 74.3695 1002.72 79.8869C1006.22 85.4043 1034.22 98.9471 1034.22 110.985C1034.22 123.023 1015.22 105.969 981.72 89.417C948.22 72.8648 978.72 63.8363 973.72 50.7952C968.72 37.754 883.72 1.64005 903.22 25.2144C922.72 48.7888 958.72 79.8869 951.72 79.8869C944.72 79.8869 915.72 69.3537 907.22 56.8141C898.72 44.2746 903.22 38.2556 876.72 43.773C850.22 49.2904 850.72 34.2429 829.22 34.2429C807.72 34.2429 820.22 43.773 797.72 50.7952C775.22 57.8173 766.72 30.2303 760.72 25.2144C754.72 20.1986 743.72 29.2271 731.72 25.2144C719.72 21.2018 708.72 18.1923 695.22 25.2144C681.72 32.2366 689.72 50.7951 662.72 56.8141C635.72 62.8331 617.22 25.2144 603.72 25.2144C590.22 25.2144 580.72 34.2429 578.22 56.8141C575.72 79.3853 567.72 107.976 536.72 114.998C505.72 122.02 508.72 89.417 500.22 79.8869C491.72 70.3569 471.22 79.8869 458.72 79.8869C446.22 79.8869 430.72 93.9312 428.22 69.3537C425.72 44.7762 454.72 63.8363 480.22 50.7952C505.72 37.754 487.22 26.2176 480.22 25.2144C473.22 24.2113 459.72 38.2556 438.22 34.2429C416.72 30.2303 402.22 37.2524 386.22 43.773C370.22 50.2936 364.72 55.811 343.22 50.7952C321.72 45.7793 293.72 60.8268 284.22 63.8363C274.72 66.8458 293.22 74.8711 269.22 89.417C245.22 103.963 227.22 81.3917 219.72 79.8869C212.22 78.3822 199.72 81.3917 180.22 98.9471C160.72 116.502 192.72 75.8743 152.72 98.9471C112.72 122.02 152.72 120.515 152.72 149.105C152.72 177.696 108.22 178.197 89.2202 172.68C70.2202 167.162 72.7202 181.207 37.2202 183.715Z" fill="white"/>
</g>
</svg>
