<svg width="117" height="40" viewBox="0 0 117 40" fill="none" xmlns="http://www.w3.org/2000/svg">
<path d="M11.5248 2.36812C12.4905 0.890568 14.1366 0 15.9017 0H101.098C102.863 0 104.509 0.890568 105.475 2.36811L115.13 17.1391C116.266 18.8772 116.266 21.1228 115.13 22.8609L105.475 37.6319C104.509 39.1094 102.863 40 101.098 40H15.9017C14.1366 40 12.4905 39.1094 11.5248 37.6319L1.87 22.8609C0.733914 21.1228 0.733912 18.8772 1.87 17.1391L11.5248 2.36812Z" fill="#DE0717"/>
<path d="M11.5248 2.36812C12.4905 0.890568 14.1366 0 15.9017 0H100.117C102.388 0 104.399 1.46563 105.095 3.62729L108.392 13.8754C108.876 15.3774 108.655 17.0173 107.792 18.3381L97.5492 34.0081C96.6291 35.4157 95.0882 36.295 93.4082 36.3709L16.0532 39.8654C14.2059 39.9488 12.4519 39.0504 11.4402 37.5026L1.87 22.8609C0.733914 21.1228 0.733912 18.8772 1.87 17.1391L11.5248 2.36812Z" fill="#ED313F"/>
</svg>
