<svg width="549" height="380" viewBox="0 0 549 380" fill="none" xmlns="http://www.w3.org/2000/svg">
<path d="M7.35696 29.7481C9.68124 21.7018 10.456 7.21851 11.2308 4.53642C14.0716 4.35761 20.528 4 23.627 4H43.7708C49.9689 4 57.7165 4 63.1398 5.07284C68.5631 6.14567 76.3107 6.68209 79.4097 6.68209C82.5088 6.68209 82.5088 5.07284 92.5807 5.07284C102.653 5.07284 115.823 9.9006 118.148 8.82776C120.472 7.75493 124.346 5.07284 135.192 4.53642C146.039 4 151.462 5.07284 160.76 6.68209C170.057 8.29135 197.948 6.68209 209.569 6.68209C221.191 6.68209 281.622 4 288.595 4C295.568 4 307.189 6.68209 309.514 6.68209C311.838 6.68209 313.387 5.07284 320.36 5.07284C327.333 5.07284 328.108 6.68209 338.18 8.82776C348.252 10.9734 364.521 9.9006 370.72 6.68209C376.918 3.46358 401.71 4 407.908 5.07284C414.106 6.14567 504.753 4 509.402 4H527.221C530.32 4 536.777 7.21851 539.617 8.82776C538.584 9.7218 536.518 12.4754 536.518 16.3376C536.518 21.1654 536.518 21.1654 539.617 23.3111C542.097 25.0276 540.65 29.3905 539.617 31.3573L523.347 35.6487C528.771 36.5427 539.617 38.7599 539.617 40.4764C539.617 42.6221 536.518 47.9863 536.518 50.6684C536.518 53.3505 534.194 60.3239 534.194 63.5424C534.194 66.7609 536.518 70.5159 539.617 76.4165C542.716 82.3171 539.617 91.4362 539.617 95.1911V102.165V115.575V127.11C539.617 129.792 534.194 137.839 536.518 141.594C538.378 144.598 535.744 146.684 534.194 148.472L521.804 154.142L534.194 159.18C532.644 161.862 531.56 177.049 539.617 180.482C547.365 184.773 539.617 192.283 539.617 198.72C539.617 205.157 539.617 245.388 542.716 251.289C545.815 257.189 542.716 258.799 539.617 262.017C536.518 265.236 539.617 272.209 539.617 275.428V287.765V299.566C539.617 306.004 542.716 314.05 542.716 318.341C542.716 322.632 541.942 324.778 539.617 327.997C537.293 331.215 539.617 340.871 539.617 344.626C539.617 348.381 541.942 357.5 539.617 359.645C537.758 361.362 538.843 366.798 539.617 369.301C539.359 371.268 538.223 375.201 535.744 375.201C532.644 375.201 530.32 373.056 526.446 371.447C522.573 369.837 522.573 373.056 513.275 373.056C503.978 373.056 503.204 373.056 497.78 371.447C492.357 369.837 491.582 368.764 487.708 369.301C483.835 369.837 476.862 373.056 468.339 373.056H441.223H375.368C369.945 373.056 370.72 375.201 363.747 375.201C356.774 375.201 353.675 375.201 347.477 373.056C341.279 370.91 341.279 371.447 332.756 371.447C324.234 371.447 303.315 373.056 296.343 373.056H270.001H235.911C205.696 373.056 211.894 371.447 204.921 371.447H188.651C177.03 371.447 181.678 373.056 173.156 375.201C164.633 377.347 166.183 374.665 158.435 373.056C150.688 371.447 111.175 373.056 101.103 373.056H5.03291C5.80759 372.162 7.35696 369.086 7.35696 363.937C7.35696 360.182 7.35696 361.791 5.03291 359.109C2.70886 356.427 5.03291 348.381 5.03291 341.944C5.03291 335.507 5.80767 322.632 7.35696 316.732C8.90625 310.831 7.35696 303.858 7.35696 300.639C7.35696 297.421 8.90648 287.765 11.231 282.401C13.5555 277.037 11.231 272.209 15.8796 265.772C20.4589 259.431 19.7752 259.337 16.0505 258.822L15.8796 258.799C12.0058 258.262 8.90648 250.752 8.90648 249.143C8.90648 247.534 8.90648 245.925 11.231 242.706C13.5555 239.488 8.90648 238.415 7.35696 231.978C5.80744 225.541 7.35696 219.104 7.35696 209.448V178.872C7.35696 175.117 7.35696 172.435 8.90648 169.217C10.456 165.998 11.2308 164.389 8.90648 161.707C7.04706 159.561 8.13172 157.237 8.90648 156.343C11.4891 154.912 16.4994 151.837 15.8796 150.979C15.1048 149.906 12.7805 149.369 8.90648 148.297C5.03245 147.224 7.35696 137.032 7.35696 133.277V110.211C7.35696 99.4825 11.2308 99.4825 12.7805 96.8004C14.3303 94.1183 11.2308 89.8269 8.90648 82.3171C6.5822 74.8072 8.90648 73.198 8.90648 60.8603C8.90648 48.5227 9.68124 54.4233 8.90648 49.5956C8.13172 44.7678 5.03268 37.7944 7.35696 29.7481Z" fill="#FCF7EF" stroke="#CEBAA9" stroke-width="8" stroke-linejoin="round"/>
</svg>
