<svg width="352" height="351" viewBox="0 0 352 351" fill="none" xmlns="http://www.w3.org/2000/svg">
<path d="M4.16645 26C5.66645 18.5 6.16645 5 6.66645 2.5C8.4998 2.33333 12.6665 2 14.6665 2H27.6665C31.6665 2 36.6665 2 40.1665 3C43.6665 4 48.6665 4.5 50.6665 4.5C52.6665 4.5 52.6665 3 59.1665 3C65.6665 3 74.1665 7.5 75.6665 6.5C77.1665 5.5 79.6665 3 86.6665 2.5C93.6665 2 97.1665 3 103.167 4.5C109.167 6 127.167 4.5 134.667 4.5C142.167 4.5 181.167 2 185.667 2C190.167 2 197.667 4.5 199.167 4.5C200.667 4.5 201.667 3 206.167 3C210.667 3 211.167 4.5 217.667 6.5C224.167 8.5 234.667 7.5 238.667 4.5C242.667 1.5 258.667 2 262.667 3C266.667 4 325.167 2 328.167 2H339.667C341.667 2 345.833 5 347.667 6.5C347 7.33333 345.667 9.9 345.667 13.5C345.667 18 345.667 18 347.667 20C349.267 21.6 348.333 25.6667 347.667 27.5L337.167 31.5C340.667 32.3333 347.667 34.4 347.667 36C347.667 38 345.667 43 345.667 45.5C345.667 48 344.167 54.5 344.167 57.5C344.167 60.5 345.667 64 347.667 69.5C349.667 75 347.667 83.5 347.667 87V93.5V106V126.5C347.667 129 344.167 136.5 345.667 140C346.867 142.8 345.167 146.833 344.167 148.5L333.167 151L344.167 155C343.167 157.5 342.466 163.3 347.667 166.5C352.667 170.5 347.667 177.5 347.667 183.5C347.667 189.5 347.667 227 349.667 232.5C351.667 238 349.667 239.5 347.667 242.5C345.667 245.5 347.667 252 347.667 255V266.5V277.5C347.667 283.5 349.667 291 349.667 295C349.667 299 349.167 301 347.667 304C346.167 307 347.667 316 347.667 319.5C347.667 323 349.167 331.5 347.667 333.5C346.466 335.1 347.167 340.167 347.667 342.5C347.5 344.333 346.767 348 345.167 348C343.167 348 341.667 346 339.167 344.5C336.667 343 336.667 346 330.667 346C324.667 346 324.167 346 320.667 344.5C317.167 343 316.667 342 314.167 342.5C311.667 343 307.167 346 301.667 346H284.167H241.667C238.167 346 238.667 348 234.167 348C229.667 348 227.667 348 223.667 346C219.667 344 219.667 344.5 214.167 344.5C208.667 344.5 195.167 346 190.667 346H173.667H151.667C132.167 346 136.167 344.5 131.667 344.5H121.167C113.667 344.5 116.667 346 111.167 348C105.667 350 106.667 347.5 101.667 346C96.6665 344.5 71.1665 346 64.6665 346H2.6666C3.16655 345.167 4.16645 342.3 4.16645 337.5C4.16645 334 4.16645 335.5 2.6666 333C1.16675 330.5 2.6666 323 2.6666 317C2.6666 311 3.1666 299 4.16645 293.5C5.1663 288 4.16645 281.5 4.16645 278.5C4.16645 275.5 5.16645 266.5 6.6666 261.5C8.16675 256.5 6.6666 252 9.6666 246C12.6219 240.089 12.1807 240.001 9.7769 239.522L9.6666 239.5C7.1666 239 5.16645 232 5.16645 230.5C5.16645 229 5.16645 227.5 6.6666 224.5C8.16675 221.5 5.16645 220.5 4.16645 214.5C3.16645 208.5 4.16645 202.5 4.16645 193.5V165C4.16645 161.5 4.16645 159 5.16645 156C6.16645 153 6.66645 151.5 5.16645 149C3.96645 147 4.66645 144.833 5.16645 144C6.83317 142.667 10.0666 139.8 9.6666 139C9.1666 138 7.6666 137.5 5.16645 136.5C2.6663 135.5 4.16645 126 4.16645 122.5V101C4.16645 91 6.66645 91 7.6666 88.5C8.66675 86 6.66645 82 5.16645 75C3.66645 68 5.16645 66.5 5.16645 55C5.16645 43.5 5.66645 49 5.16645 44.5C4.66645 40 2.66645 33.5 4.16645 26Z" fill="#FCF7EF" stroke="#CEBAA9" stroke-width="3" stroke-linejoin="round"/>
<path d="M246.046 18L260.086 23.0506L263.61 18H277.09C303.918 18 317.331 18 325.666 23.9842C334 29.9685 334 39.6 334 58.863V198.151L320.521 206.723H334V291.137C334 310.4 334 320.031 325.666 326.016C317.331 332 303.918 332 277.09 332H100.783L99.5034 322.322L86.9143 332H74.91C48.0823 332 34.6685 332 26.3343 326.016C18 320.031 18 310.4 18 291.137C18 291.137 18 221.777 18 219.627L24.7393 213.175L18 201.884C18 199.733 18 193.731 18 193.731L28.7768 184.931L18 178.127V58.863C18 39.6 18 29.9685 26.3343 23.9842C34.6685 18 48.0823 18 74.91 18H246.046Z" fill="#EAEEF4" stroke="#B6A57F" stroke-width="2"/>
</svg>
