<svg width="166" height="40" viewBox="0 0 166 40" fill="none" xmlns="http://www.w3.org/2000/svg">
<path d="M48.4329 29.1406L49.1125 9.78125L52.9797 9.47656L55.0657 18.6875L57.386 9.47656L61.2297 9.78125L61.9329 29.1406L57.8313 29L58.0657 19.2266L56.6829 26.5625L54.1282 27.1484L52.2766 18.8984L52.511 29L48.4329 29.1406Z" fill="#ED313F"/>
<path d="M66.9775 29.4453L63.5791 27.9922L62.9697 13.3438L64.8213 10.0859L70.751 9.40625L72.2979 13.7891L71.4541 28.4609L66.9775 29.4453ZM68.7354 24.7578L69.2041 16.1094L67.6104 14.8438L66.2041 16.0625L66.3916 25.1562L67.6572 26.1406L68.7354 24.7578Z" fill="#ED313F"/>
<path d="M78.4441 29.1406L76.991 21.1016L76.8269 29.2109L73.6394 28.9766L73.4285 9.71094L77.0847 9.57031L78.7722 19.4844L78.8191 9.59375L82.1941 9.71094L81.3972 29.3047L78.4441 29.1406Z" fill="#ED313F"/>
<path d="M84.6138 29.2109L83.6529 23.2344L87.0044 22.6016L87.4497 25.3438L89.0904 24.9453L88.5982 21.6641L84.7076 19.7422L83.3716 15.0312L84.3091 9.52344L90.9185 9.26562L92.1607 15.9219L89.0669 16.8594L88.6216 15.125L87.1216 15.4531L87.4029 17.3281L91.5279 19.5312L92.1841 28.8828L84.6138 29.2109Z" fill="#ED313F"/>
<path d="M96.7132 28.9766L96.3147 15.0547L93.6897 15.4766L93.3147 10.1797L102.807 9.45312L103.041 14.6562L100.416 14.75L100.299 29.3281L96.7132 28.9766Z" fill="#ED313F"/>
<path d="M106.234 29.375L104.172 27.6172L104.43 9.875L112.281 9.3125L112.586 14.8203L107.734 15.5469L107.711 18.2188L112.094 17.8438L111.813 21.3594L107.711 21.5469L107.641 24.8516L112.281 24.125L112.656 28.4609L106.234 29.375Z" fill="#ED313F"/>
<path d="M114.373 29.1641L113.834 13.0391L114.748 9.73438L121.381 9.33594L122.623 16.2031L120.935 18.9922L122.623 19.6719L121.943 28.625L118.99 28.7656L119.693 21.8516L117.537 20.9375L117.842 28.8594L114.373 29.1641ZM118.615 17.9844L119.459 16.2031L118.779 15.0312L117.232 15.3359L117.373 18.2891L118.615 17.9844Z" fill="#ED313F"/>
<path d="M128.816 29.1406L127.363 21.1016L127.199 29.2109L124.011 28.9766L123.8 9.71094L127.457 9.57031L129.144 19.4844L129.191 9.59375L132.566 9.71094L131.769 29.3047L128.816 29.1406Z" fill="#ED313F"/>
<path d="M139.767 28.9766V28.1328L135.665 28.9062L133.978 25.2734L134.283 18.7344L139.134 17.5391L139.064 14.8438L137.447 15.0078L137.517 16.6953L134.283 17L133.743 10.4609L138.759 9.28906L142.533 10.4609L142.837 28.6719L139.767 28.9766ZM139.368 20.3984L137.587 20.7969L137.517 23.1875L139.673 23.7031L139.368 20.3984Z" fill="#ED313F"/>
<path d="M144.554 29.1641L144.015 13.0391L144.929 9.73438L151.562 9.33594L152.804 16.2031L151.116 18.9922L152.804 19.6719L152.124 28.625L149.171 28.7656L149.874 21.8516L147.718 20.9375L148.023 28.8594L144.554 29.1641ZM148.796 17.9844L149.64 16.2031L148.96 15.0312L147.413 15.3359L147.554 18.2891L148.796 17.9844Z" fill="#ED313F"/>
<path d="M157.286 29.0703V22.3203L154.052 16.5547L153.981 9.52344L158.247 9.17188L158.013 16.5312L158.95 18.2188L159.888 16.4844L159.442 9.35938L163.473 9.52344V17.3984L160.755 21.9922L160.895 29.2344L157.286 29.0703Z" fill="#ED313F"/>
<path fill-rule="evenodd" clip-rule="evenodd" d="M47.3958 30.177L48.1444 8.85442L53.7638 8.41167L55.1173 14.3884L56.6226 8.41291L62.1966 8.85476L62.3272 12.4502L64.2027 9.15027L71.4287 8.322L72.4446 11.2006L72.4178 8.74906L77.9232 8.53731L77.9274 8.56218L83.2341 8.74644L83.1735 10.2349L83.4593 8.55581L91.7429 8.2327L92.438 11.9574L92.2469 9.25848L103.759 8.37728L103.784 8.9187L113.224 8.24242L113.373 10.952L113.974 8.77902L122.207 8.28451L122.822 11.6855L122.79 8.74906L128.295 8.53731L128.299 8.56218L133.606 8.74644L133.576 9.47302L138.796 8.25346L143.52 9.72057L143.542 10.9982L144.155 8.77902L152.388 8.28451L153.003 11.6856L152.972 8.60322L159.282 8.08316L159.273 8.35168L164.473 8.5633V17.6722L161.76 22.2569L161.916 30.2818L156.286 30.0259V22.5816L153.316 17.2878L152.58 18.5039L153.856 19.0177L153.054 29.5818L149.058 29.7722L143.59 30.2526L143.568 29.6043L138.767 30.0807V29.339L135.086 30.0331L132.967 25.4721L133.318 17.942L133.356 17.9327L133.273 16.9286L132.727 30.3594L128.181 30.1069L128.177 30.2856L123.021 29.9065L123 27.919L122.873 29.5818L118.877 29.7722L113.409 30.2526L113.379 29.3681L105.929 30.4286L103.165 28.0731L103.346 15.646L101.408 15.7152L101.29 30.4301L95.7387 29.8858L95.3477 16.2229L93.2956 16.5527L93.3079 16.6191L90.0477 17.607L92.4866 18.9097L93.2535 29.8374L83.7677 30.2485L82.6438 23.2588L82.3551 30.3594L77.8089 30.1069L77.8053 30.2856L72.6494 29.9065L72.6051 25.8614L72.4088 29.2749L66.8791 30.4908L62.921 28.7984L62.971 30.1768L56.8077 29.9655L56.8658 27.5465L53.4954 28.3195L53.5335 29.9653L47.3958 30.177ZM52.2765 18.8984L54.1281 27.1484L56.6828 26.5625L58.0656 19.2266L57.8312 29L61.9328 29.1406L61.2296 9.78124L57.3859 9.47656L55.0656 18.6875L52.9796 9.47656L49.1124 9.78124L48.4328 29.1406L52.5109 29L52.2765 18.8984ZM76.9909 21.1016L78.444 29.1406L81.3971 29.3047L82.194 9.71093L78.819 9.59374L78.7721 19.4844L77.0846 9.57031L73.4284 9.71093L73.6393 28.9766L76.8268 29.2109L76.9909 21.1016ZM82.6787 22.4006L86.4064 21.6968L83.8665 20.4421L82.8974 17.0247L82.6787 22.4006ZM87.0043 22.6016L83.6528 23.2344L84.6137 29.2109L92.184 28.8828L91.5278 19.5312L87.4028 17.3281L87.1215 15.4531L88.6215 15.125L89.0668 16.8594L92.1606 15.9219L90.9184 9.26562L84.309 9.52343L83.3715 15.0312L84.7074 19.7422L88.5981 21.6641L89.0903 24.9453L87.4496 25.3437L87.0043 22.6016ZM96.3146 15.0547L96.7131 28.9766L100.299 29.3281L100.416 14.75L103.041 14.6562L102.807 9.45312L93.3146 10.1797L93.6896 15.4766L96.3146 15.0547ZM113.165 22.9744L113.024 18.7529L112.739 22.3181L108.691 22.5031L108.666 23.6789L113.165 22.9744ZM107.641 24.8516L107.711 21.5469L111.812 21.3594L112.094 17.8437L107.711 18.2187L107.734 15.5469L112.586 14.8203L112.281 9.31249L104.43 9.87499L104.172 27.6172L106.234 29.375L112.656 28.4609L112.281 24.125L107.641 24.8516ZM108.727 16.4094L108.72 17.1287L112.958 16.7662L112.925 15.7807L108.727 16.4094ZM118.604 22.6735L118.624 22.4843L118.597 22.4729L118.604 22.6735ZM117.537 20.9375L119.693 21.8516L118.99 28.7656L121.943 28.625L122.623 19.6719L120.935 18.9922L122.623 16.2031L121.381 9.33593L114.748 9.73437L113.834 13.0391L114.373 29.1641L117.842 28.8594L117.537 20.9375ZM122.399 18.5039L122.899 18.7049L122.888 17.6971L122.399 18.5039ZM127.363 21.1016L128.816 29.1406L131.769 29.3047L132.566 9.71093L129.191 9.59374L129.144 19.4844L127.456 9.57031L123.8 9.71093L124.011 28.9766L127.199 29.2109L127.363 21.1016ZM139.134 17.5391L134.282 18.7344L133.978 25.2734L135.665 28.9062L139.767 28.1328V28.9766L142.837 28.6719L142.532 10.4609L138.759 9.28906L133.743 10.4609L134.282 17L137.517 16.6953L137.447 15.0078L139.064 14.8437L139.134 17.5391ZM148.785 22.6735L148.805 22.4843L148.778 22.4729L148.785 22.6735ZM147.718 20.9375L149.874 21.8516L149.171 28.7656L152.124 28.625L152.804 19.6719L151.116 18.9922L152.804 16.2031L151.562 9.33593L144.929 9.73437L144.015 13.0391L144.554 29.1641L148.022 28.8594L147.718 20.9375ZM157.286 22.3203V29.0703L160.895 29.2344L160.755 21.9922L163.473 17.3984V9.52343L159.442 9.35937L159.887 16.4844L158.95 18.2187L158.012 16.5312L158.247 9.17187L153.981 9.52343L154.051 16.5547L157.286 22.3203ZM69.204 16.1094L67.6103 14.8437L66.204 16.0625L66.3915 25.1562L67.6571 26.1406L68.7353 24.7578L69.204 16.1094ZM67.7537 24.3904L68.1775 16.5712L67.6382 16.1429L67.2135 16.5109L67.3815 24.6594L67.4826 24.738L67.7537 24.3904ZM118.779 15.0312L119.459 16.2031L118.615 17.9844L117.373 18.2891L117.232 15.3359L118.779 15.0312ZM118.272 16.1503L118.33 16.2501L118.282 16.352L118.272 16.1503ZM138.542 22.332L138.54 22.404L138.549 22.4062L138.542 22.332ZM139.673 23.7031L137.517 23.1875L137.587 20.7969L139.368 20.3984L139.673 23.7031ZM148.96 15.0312L149.64 16.2031L148.796 17.9844L147.554 18.2891L147.413 15.3359L148.96 15.0312ZM148.453 16.1503L148.511 16.2501L148.463 16.352L148.453 16.1503ZM66.9774 29.4453L63.579 27.9922L62.9696 13.3437L64.8212 10.0859L70.7509 9.40624L72.2978 13.7891L71.454 28.4609L66.9774 29.4453Z" fill="white"/>
<circle cx="20" cy="20" r="20" fill="white"/>
<circle cx="19.9999" cy="20" r="18.6667" fill="#F47D96"/>
<circle cx="20" cy="20" r="18.1333" fill="#FCA6AF"/>
<circle cx="19.9999" cy="20" r="17.6" fill="url(#paint0_radial_70_438)"/>
<path d="M7.55449 32.4447C4.36973 29.2598 2.3999 24.8599 2.3999 20C2.3999 10.2798 10.2797 2.39999 19.9999 2.39999C25.0432 2.39999 29.5911 4.52126 32.8 7.92024C32.6837 7.79718 32.5653 7.6754 32.4449 7.55492C27.0665 4.13333 16.1333 4.53333 10.9332 9.86666C5.73327 15.1999 4.26663 26.7995 7.55449 32.4447Z" fill="#FDB0B9"/>
<path d="M14.1334 4.53334C13.3334 3.86667 10.6667 5.6 10.6667 6.53334C10.6667 7.46667 11.5201 7.2 12.2667 7.2C13.2001 7.2 15.0496 5.2968 14.1334 4.53334Z" fill="#FCFCFC"/>
<path d="M31.2001 31.3489C30.4001 30.6823 27.7334 32.4156 27.7334 33.3489C27.7334 34.2823 28.5867 34.0156 29.3334 34.0156C30.2667 34.0156 32.1162 32.1124 31.2001 31.3489Z" fill="url(#paint1_radial_70_438)"/>
<path d="M32.8406 30.0602C32.5003 29.8902 31.7349 30.7567 31.8218 31.0949C31.9088 31.4331 32.1806 31.2602 32.4402 31.1934C32.7646 31.11 33.2302 30.255 32.8406 30.0602Z" fill="url(#paint2_radial_70_438)"/>
<path fill-rule="evenodd" clip-rule="evenodd" d="M13.5801 29.0859L14.2213 10.9739L18.5924 10.6324L20.0567 17.0444L21.6854 10.6331L26.0239 10.9741L26.6872 29.0858L21.9415 28.9244L22.0054 26.2824L21.9254 26.7034L18.7935 27.4157L18.208 24.8288L18.3038 28.9244L13.5801 29.0859ZM17.55 19.5051L19.1958 26.7773L21.4666 26.2608L22.6958 19.7943L22.4875 28.4094L26.1333 28.5333L25.5083 11.4686L22.0916 11.2L20.0291 19.3192L18.175 11.2L14.7375 11.4686L14.1333 28.5333L17.7583 28.4094L17.55 19.5051Z" fill="#B90F4A"/>
<path fill-rule="evenodd" clip-rule="evenodd" d="M12.7502 29.9147L13.4471 10.232L19.2186 9.78107L20.0981 13.6323L21.076 9.78272L26.7973 10.2325L27.5181 29.9145L21.1226 29.6971L21.171 27.6954L19.0864 28.1695L19.1221 29.6969L12.7502 29.9147ZM18.208 24.8288L18.7935 27.4157L21.9254 26.7034L22.0054 26.2824L21.9415 28.9245L26.6872 29.0858L26.0239 10.9741L21.6854 10.6331L20.0567 17.0444L18.5924 10.6324L14.2213 10.9739L13.5801 29.0859L18.3038 28.9244L18.208 24.8288ZM17.7583 28.4094L17.55 19.5051L19.1958 26.7773L21.4667 26.2608L22.6958 19.7944L22.4875 28.4094L26.1333 28.5333L25.5083 11.4686L22.0917 11.2L20.0292 19.3192L18.175 11.2L14.7375 11.4686L14.1333 28.5333L17.7583 28.4094ZM16.94 27.6369L14.9632 27.7045L15.5117 12.2105L17.5488 12.0514L19.2492 19.4973L20.8045 19.5162L22.701 12.0504L24.7349 12.2103L25.3024 27.7046L23.3064 27.6368L23.4956 19.8137L21.9099 19.645L20.7785 25.5969L19.7993 25.8196L18.3303 19.3285L16.7502 19.5238L16.94 27.6369Z" fill="#F36F9D"/>
<path d="M14.1333 28.5333L14.7375 11.4686L18.175 11.2L20.0291 19.3192L22.0916 11.2L25.5083 11.4686L26.1333 28.5333L22.4875 28.4094L22.6958 19.7944L21.4666 26.2608L19.1958 26.7773L17.55 19.5051L17.7583 28.4094L14.1333 28.5333Z" fill="#FDEAF1"/>
<defs>
<radialGradient id="paint0_radial_70_438" cx="0" cy="0" r="1" gradientUnits="userSpaceOnUse" gradientTransform="translate(22.6666 25.3333) rotate(7.59464) scale(14.1239)">
<stop stop-color="#EB2E3C"/>
<stop offset="0.0001" stop-color="#E40616"/>
<stop offset="1" stop-color="#FB7380"/>
</radialGradient>
<radialGradient id="paint1_radial_70_438" cx="0" cy="0" r="1" gradientUnits="userSpaceOnUse" gradientTransform="translate(29.7334 32.6667) rotate(63.4349) scale(0.596284 1.4006)">
<stop stop-color="#FCFCFC"/>
<stop offset="1" stop-color="#DC5D6A"/>
</radialGradient>
<radialGradient id="paint2_radial_70_438" cx="0" cy="0" r="1" gradientUnits="userSpaceOnUse" gradientTransform="translate(32.4535 30.6689) rotate(49.9517) scale(0.221318 0.506788)">
<stop stop-color="#FCFCFC"/>
<stop offset="1" stop-color="#DC5D6A"/>
</radialGradient>
</defs>
</svg>
