<svg width="166" height="40" viewBox="0 0 166 40" fill="none" xmlns="http://www.w3.org/2000/svg">
<path d="M50.4328 29.1406L51.1125 9.78125L54.9797 9.47656L57.0656 18.6875L59.3859 9.47656L63.2297 9.78125L63.9328 29.1406L59.8312 29L60.0656 19.2266L58.6828 26.5625L56.1281 27.1484L54.2766 18.8984L54.5109 29L50.4328 29.1406ZM68.9775 29.4453L65.5791 27.9922L64.9697 13.3438L66.8212 10.0859L72.7509 9.40625L74.2978 13.7891L73.4541 28.4609L68.9775 29.4453ZM70.7353 24.7578L71.2041 16.1094L69.6103 14.8438L68.2041 16.0625L68.3916 25.1562L69.6572 26.1406L70.7353 24.7578ZM80.4441 29.1406L78.9909 21.1016L78.8269 29.2109L75.6394 28.9766L75.4284 9.71094L79.0847 9.57031L80.7722 19.4844L80.8191 9.59375L84.1941 9.71094L83.3972 29.3047L80.4441 29.1406ZM86.6138 29.2109L85.6528 23.2344L89.0044 22.6016L89.4497 25.3438L91.0903 24.9453L90.5981 21.6641L86.7075 19.7422L85.3716 15.0312L86.3091 9.52344L92.9184 9.26562L94.1606 15.9219L91.0669 16.8594L90.6216 15.125L89.1216 15.4531L89.4028 17.3281L93.5278 19.5312L94.1841 28.8828L86.6138 29.2109ZM98.7131 28.9766L98.3147 15.0547L95.6897 15.4766L95.3147 10.1797L104.807 9.45312L105.041 14.6562L102.416 14.75L102.299 29.3281L98.7131 28.9766ZM108.234 29.375L106.172 27.6172L106.43 9.875L114.281 9.3125L114.586 14.8203L109.734 15.5469L109.711 18.2188L114.094 17.8438L113.812 21.3594L109.711 21.5469L109.641 24.8516L114.281 24.125L114.656 28.4609L108.234 29.375ZM116.373 29.1641L115.834 13.0391L116.748 9.73438L123.381 9.33594L124.623 16.2031L122.935 18.9922L124.623 19.6719L123.943 28.625L120.99 28.7656L121.693 21.8516L119.537 20.9375L119.842 28.8594L116.373 29.1641ZM120.615 17.9844L121.459 16.2031L120.779 15.0312L119.232 15.3359L119.373 18.2891L120.615 17.9844ZM130.816 29.1406L129.363 21.1016L129.199 29.2109L126.011 28.9766L125.8 9.71094L129.457 9.57031L131.144 19.4844L131.191 9.59375L134.566 9.71094L133.769 29.3047L130.816 29.1406ZM141.767 28.9766V28.1328L137.665 28.9062L135.978 25.2734L136.283 18.7344L141.134 17.5391L141.064 14.8438L139.447 15.0078L139.517 16.6953L136.283 17L135.743 10.4609L140.759 9.28906L144.533 10.4609L144.837 28.6719L141.767 28.9766ZM141.368 20.3984L139.587 20.7969L139.517 23.1875L141.673 23.7031L141.368 20.3984ZM146.554 29.1641L146.015 13.0391L146.929 9.73438L153.562 9.33594L154.804 16.2031L153.116 18.9922L154.804 19.6719L154.124 28.625L151.171 28.7656L151.874 21.8516L149.718 20.9375L150.023 28.8594L146.554 29.1641ZM150.796 17.9844L151.64 16.2031L150.96 15.0312L149.413 15.3359L149.554 18.2891L150.796 17.9844ZM159.286 29.0703V22.3203L156.052 16.5547L155.981 9.52344L160.247 9.17188L160.012 16.5312L160.95 18.2188L161.887 16.4844L161.442 9.35938L165.473 9.52344V17.3984L162.755 21.9922L162.895 29.2344L159.286 29.0703Z" fill="white"/>
<path fill-rule="evenodd" clip-rule="evenodd" d="M1.89984 1.89984C0 3.79968 0 6.85748 0 12.973V27.027C0 33.1425 0 36.2003 1.89984 38.1002C3.79968 40 6.85748 40 12.973 40H27.027C33.1425 40 36.2003 40 38.1002 38.1002C40 36.2003 40 33.1425 40 27.027V12.973C40 6.85748 40 3.79968 38.1002 1.89984C36.2003 0 33.1425 0 27.027 0H12.973C6.85748 0 3.79968 0 1.89984 1.89984ZM11.8559 7.38739L11 32L16.1354 31.8212L15.8403 18.9785L18.1719 29.4672L21.3889 28.7223L23.1302 19.3957L22.8351 31.8212L28 32L27.1146 7.38739L22.2743 7L19.3524 18.7104L16.7257 7L11.8559 7.38739Z" fill="white"/>
</svg>
