<svg width="754" height="259" viewBox="0 0 754 259" fill="none" xmlns="http://www.w3.org/2000/svg">
<path d="M117.067 158.257L110.149 151.073L69.5567 155.951L67.8504 142.887L55.2974 147.891L57.0853 157.883L15.4829 165.812L0 36.0537L37.4132 27.1957L46.6968 50.6729L49.0518 25.4021L87.0592 22.5557L91.747 46.9099L102.023 22.6323L147.35 11.993L157.127 31.9415L155.381 13.903L186.745 9.99376L186.735 9.86579L188.488 9.77659L193.087 9.20331L193.174 9.53809L224.713 7.93307L225.316 21.3485L226.975 6.75127L280.399 1.69278L286.06 24.8356L284.43 7.67861L357.827 0.28051L358.085 4.01825L420.091 0L420.976 18.2564L425.59 3.66671L478.757 2.41492L482.001 25.0296L483.089 5.49718L514.684 6.38695L514.693 6.25889L516.44 6.43638L521.073 6.56686L521.108 6.91095L552.525 10.1046L548.545 47.076H551.324L554.076 32.3584L567.528 13.1399L607.992 9.98543L608.185 47.076H611.988L612.367 43.0899L623.15 17.4573L676.207 21.0886L677.383 44.2995L680.465 23.8284L723.765 27.1783L723.389 29.1208L753.045 35.136L743.988 91.4548L724.136 115.321L717.255 164.138L678.796 156.147L686.04 111.103L677.041 86.5868L663.819 150.468L663.874 151.076L655.674 161.434V194.868L646.66 210.099L647.265 241.284L617.049 239.911V211.162L609.008 196.829L608.645 242.088L579.002 239.181L578.268 213.57L576.381 238.438L558.182 239.304L544.948 240.467L545.138 242.314L538.066 241.071L534.097 241.42L534.062 240.368L523.376 238.49L523.354 238.887L493.519 240.93L495.387 219.592L489.985 220.673L490.56 238.906L461.058 241.498L459.653 199.724C449.155 233.528 417.631 258.076 380.374 258.076C341.429 258.076 308.749 231.253 299.799 195.073L297.659 195.267L296.53 203.15L295.562 203.532L303.805 238.185L274.977 240.961L274.617 239.263L253.576 242.031L253.553 238.81L225.784 241.193L224.371 237.037L201.936 241.97L191.647 237.571L191.632 238.003L160.314 241.746L155.254 237.204L155.127 238.732L113.321 240.835L110.881 176.814L117.067 158.257Z" fill="white"/>
<path d="M23.2762 155.165L9.88801 42.9614L31.9078 37.748L52.1661 88.9791L57.3073 33.809L79.7367 32.1293L101.096 143.096L77.3272 145.952L69.9413 89.4046L68.5281 132.928L54.3256 138.59L36.2773 92.6883L46.6586 150.708L23.2762 155.165Z" fill="#ED313F"/>
<path d="M134.14 141.054L113.465 134.937L100.009 50.4795L108.529 30.3496L142.424 22.3936L154.356 46.7388L159.41 132.317L134.14 141.054ZM141.148 112.704L138.004 62.2787L127.912 56.0258L120.591 64.0399L127.839 116.601L135.839 121.446L141.148 112.704Z" fill="#ED313F"/>
<path d="M204.018 132.176L191.566 86.1774L194.654 133.391L176.012 133.618L165.182 21.7509L186.362 19.1111L201.112 75.8905L196.454 18.3828L216.128 17.3816L221.264 131.658L204.018 132.176Z" fill="#ED313F"/>
<path d="M243.228 129.592L235.7 95.0926L255.016 90.324L258.496 106.152L267.923 103.301L263.996 84.3487L240.715 74.412L231.412 47.4054L235.092 15.0229L273.505 11.3858L282.89 49.753L265.174 56.2129L262.02 46.2552L253.389 48.6509L255.633 59.4808L280.371 70.9798L287.214 125.235L243.228 129.592Z" fill="#ED313F"/>
<path d="M316.693 124.876L312.415 43.744L297.166 46.5727L294.236 15.7358L349.489 10.1665L351.586 40.4764L336.291 41.3915L337.654 126.422L316.693 124.876Z" fill="#ED313F"/>
<path d="M375.475 126.361L363.514 116.026L365.722 12.5422L411.544 9.57272L413.103 41.713L384.774 45.7586L384.531 61.3432L410.112 59.3298L408.332 79.8259L384.399 80.7568L383.858 100.031L410.956 95.977L412.972 121.284L375.475 126.361Z" fill="#ED313F"/>
<path d="M425.915 125.698L426.201 31.583L432.232 12.5128L470.983 11.6005L476.764 51.8966L466.333 67.7965L476.026 72.1175L470.16 124.165L452.915 124.357L458.484 84.201L446.109 78.414L446.201 124.659L425.915 125.698ZM453.022 61.4281L458.319 51.2238L454.606 44.2479L445.524 45.6951L445.715 62.9402L453.022 61.4281Z" fill="#ED313F"/>
<path d="M513.239 129.776L507.902 82.4211L503.799 129.557L485.337 126.956L491.588 14.7401L512.924 15.3409L518.897 73.6999L523.01 16.1506L542.608 18.1429L530.364 131.877L513.239 129.776Z" fill="#ED313F"/>
<path d="M544.709 131.438L562.565 35.9252L572.465 21.7824L599.042 19.7104L599.655 137.085L579.862 131.578L581.465 99.7274L569.59 100.352L564.708 132.02L544.709 131.438ZM581.595 84.3545L582.713 54.6544L576.593 55.4297L571.977 84.3757L581.595 84.3545Z" fill="#ED313F"/>
<path d="M612.277 139.003L621.197 45.3119L628.952 26.8755L667.623 29.5221L669.682 70.1787L657.837 85.0546L667.093 90.2467L656.477 141.536L639.287 140.145L648.516 100.67L636.724 93.7718L632.573 139.83L612.277 139.003ZM645.166 77.4918L651.377 67.8165L648.32 60.5294L639.143 61.1373L637.752 78.3272L645.166 77.4918Z" fill="#ED313F"/>
<path d="M689.047 149.085L695.299 110.21L682.011 74.0079L688.118 33.4474L713.011 35.3732L704.845 77.5413L708.682 88.1285L715.687 79.0079L719.721 37.5602L742.787 42.2386L735.493 87.5934L715.581 111.532L709.683 153.373L689.047 149.085Z" fill="#ED313F"/>
<path d="M121.968 231.389L119.937 178.107L123.687 166.857L145.093 165.607L149.624 187.639L143.608 197.873L149.312 200.139L146.812 230.139L121.968 231.389ZM137.905 217.326L139.546 205.685L134.312 203.42L131.499 204.357L132.28 218.342L137.905 217.326ZM135.952 194.982L138.765 189.201L136.655 184.514L131.03 185.451L131.265 195.764L135.952 194.982ZM163.293 232.326L156.418 226.154L155.949 170.685L159.699 165.451L169.855 167.404L168.215 215.529L183.449 214.045L182.902 229.982L163.293 232.326ZM202.821 232.56L191.493 227.717L189.462 178.889L195.633 168.029L215.399 165.764L220.555 180.373L217.743 229.279L202.821 232.56ZM208.68 216.935L210.243 188.107L204.93 183.889L200.243 187.951L200.868 218.264L205.087 221.545L208.68 216.935ZM232.037 231.623L226.724 215.998L228.13 169.514L248.13 165.139L255.474 171.076L254.693 193.81L244.146 193.342L243.599 184.67L238.443 186.701L237.193 213.889L240.162 220.764L244.927 219.592L244.068 209.67L254.615 208.654L255.708 229.592L232.037 231.623ZM262.502 231.779L262.033 167.248L272.268 165.685L273.049 192.639L278.362 190.295L282.112 165.92L292.658 166.701L288.362 196.701L285.002 198.029L292.658 230.217L282.112 231.232L275.705 201.076L273.596 201.935L274.377 230.217L262.502 231.779Z" fill="#ED313F"/>
<path d="M469.733 231.701L467.937 178.264L470.983 167.248L492.312 165.764L497.546 188.029L492.077 211.076L480.749 213.342L481.296 230.685L469.733 231.701ZM484.89 202.873L486.999 188.576L484.421 184.435L479.265 184.982L480.046 204.045L484.89 202.873ZM503.402 231.232L508.246 175.92L513.09 167.326L528.09 164.67L534.965 231.389L523.402 229.357L522.543 211.154L515.824 212.17L514.808 230.451L503.402 231.232ZM521.762 202.404L520.746 185.451L517.308 186.232L516.293 202.951L521.762 202.404ZM542.774 231.623L540.977 177.873L544.024 166.857L566.133 165.529L570.274 188.42L564.649 197.717L570.274 199.982L568.008 229.826L558.165 230.295L560.508 207.248L553.321 204.201L554.337 230.607L542.774 231.623ZM556.915 194.357L559.727 188.42L557.462 184.514L552.305 185.529L552.774 195.373L556.915 194.357ZM587.771 230.998L586.443 184.592L577.693 185.998L576.443 168.342L608.083 165.92L608.865 183.264L600.115 183.576L599.724 232.17L587.771 230.998ZM626.049 231.31V208.81L615.268 189.592L615.033 166.154L629.252 164.982L628.471 189.514L631.596 195.139L634.721 189.357L633.237 165.607L646.674 166.154V192.404L637.612 207.717L638.08 231.857L626.049 231.31Z" fill="#ED313F"/>
<circle cx="380" cy="175" r="75" fill="white"/>
<circle cx="380" cy="175" r="70" fill="#F47D96"/>
<circle cx="380" cy="175" r="68" fill="#FCA6AF"/>
<circle cx="380" cy="175" r="66" fill="url(#paint0_radial_70_464)"/>
<path d="M333.33 221.668C321.387 209.724 314 193.225 314 175C314 138.549 343.549 109 380 109C398.912 109 415.967 116.955 428 129.701C427.564 129.239 427.12 128.783 426.669 128.331C406.5 115.5 365.5 117 346 137C326.5 157 321 200.498 333.33 221.668Z" fill="#FDB0B9"/>
<path d="M358 117C355 114.5 345 121 345 124.5C345 128 348.2 127 351 127C354.5 127 361.436 119.863 358 117Z" fill="#FCFCFC"/>
<path d="M422 217.559C419 215.059 409 221.559 409 225.059C409 228.559 412.2 227.559 415 227.559C418.5 227.559 425.436 220.422 422 217.559Z" fill="url(#paint1_radial_70_464)"/>
<path d="M428.152 212.726C426.876 212.088 424.005 215.338 424.332 216.606C424.658 217.874 425.677 217.226 426.65 216.975C427.867 216.662 429.613 213.456 428.152 212.726Z" fill="url(#paint2_radial_70_464)"/>
<path fill-rule="evenodd" clip-rule="evenodd" d="M355.925 209.072L358.33 141.152L374.722 139.872L380.213 163.917L386.32 139.874L402.59 141.153L405.077 209.072L387.281 208.467L387.52 198.559L387.22 200.138L375.476 202.809L373.28 193.108L373.639 208.466L355.925 209.072ZM370.812 173.144L376.984 200.415L385.5 198.478L390.109 174.229L389.328 206.535L403 207L400.656 143.007L387.844 142L380.109 172.447L373.156 142L360.266 143.007L358 207L371.594 206.535L370.812 173.144Z" fill="#B90F4A"/>
<path fill-rule="evenodd" clip-rule="evenodd" d="M352.813 212.18L355.427 138.37L377.07 136.679L380.368 151.121L384.035 136.685L405.49 138.372L408.193 212.179L384.21 211.364L384.391 203.858L376.574 205.636L376.708 211.363L352.813 212.18ZM373.28 193.108L375.476 202.809L387.22 200.138L387.52 198.559L387.281 208.467L405.077 209.072L402.59 141.153L386.32 139.874L380.213 163.917L374.722 139.872L358.33 141.152L355.925 209.072L373.639 208.466L373.28 193.108ZM371.594 206.535L370.813 173.144L376.984 200.415L385.5 198.478L390.109 174.229L389.328 206.535L403 207L400.656 143.007L387.844 142L380.109 172.447L373.156 142L360.266 143.007L358 207L371.594 206.535ZM368.525 203.638L361.112 203.892L363.169 145.789L370.808 145.193L377.185 173.115L383.017 173.186L390.129 145.189L397.756 145.788L399.884 203.892L392.399 203.638L393.109 174.301L387.162 173.669L382.92 195.988L379.247 196.823L373.739 172.482L367.813 173.214L368.525 203.638Z" fill="#F36F9D"/>
<path d="M358 207L360.266 143.007L373.156 142L380.109 172.447L387.844 142L400.656 143.007L403 207L389.328 206.535L390.109 174.229L385.5 198.478L376.984 200.415L370.812 173.144L371.594 206.535L358 207Z" fill="#FDEAF1"/>
<defs>
<radialGradient id="paint0_radial_70_464" cx="0" cy="0" r="1" gradientUnits="userSpaceOnUse" gradientTransform="translate(390 195) rotate(7.59464) scale(52.9646)">
<stop stop-color="#EB2E3C"/>
<stop offset="0.0001" stop-color="#E40616"/>
<stop offset="1" stop-color="#FB7380"/>
</radialGradient>
<radialGradient id="paint1_radial_70_464" cx="0" cy="0" r="1" gradientUnits="userSpaceOnUse" gradientTransform="translate(416.5 222.5) rotate(63.435) scale(2.23607 5.25225)">
<stop stop-color="#FCFCFC"/>
<stop offset="1" stop-color="#DC5D6A"/>
</radialGradient>
<radialGradient id="paint2_radial_70_464" cx="0" cy="0" r="1" gradientUnits="userSpaceOnUse" gradientTransform="translate(426.7 215.008) rotate(49.9517) scale(0.829945 1.90046)">
<stop stop-color="#FCFCFC"/>
<stop offset="1" stop-color="#DC5D6A"/>
</radialGradient>
</defs>
</svg>
